<svg width="1024" height="145" viewBox="0 0 1024 145" fill="none" xmlns="http://www.w3.org/2000/svg">
<g opacity="0.05">
<rect x="597.555" y="146.43" width="18.7717" height="20.5188" rx="5" transform="rotate(-180 597.555 146.43)" fill="#99C8FF"/>
<rect x="935.29" y="146.43" width="18.7717" height="20.5188" rx="5" transform="rotate(-180 935.29 146.43)" fill="#E8EAEE"/>
<rect x="259.819" y="146.43" width="18.7717" height="20.5188" rx="5" transform="rotate(-180 259.819 146.43)" fill="#99C8FF"/>
<rect x="428.687" y="146.43" width="18.7717" height="20.5188" rx="5" transform="rotate(-180 428.687 146.43)" fill="#99C8FF"/>
<rect x="766.423" y="146.43" width="18.7717" height="20.5188" rx="5" transform="rotate(-180 766.423 146.43)" fill="#E8EAEE"/>
<rect x="90.9504" y="146.43" width="18.7717" height="20.5188" rx="5" transform="rotate(-180 90.9504 146.43)" fill="#BCDBFF"/>
<rect x="18.7716" y="146.769" width="18.7717" height="20.5188" rx="5" transform="rotate(-180 18.7716 146.769)" fill="#C4DFFF"/>
<rect x="573.431" y="146.43" width="18.7717" height="20.5188" rx="5" transform="rotate(-180 573.431 146.43)" fill="#C4DFFF"/>
<rect x="911.167" y="146.43" width="18.7717" height="20.5188" rx="5" transform="rotate(-180 911.167 146.43)" fill="#C4DFFF"/>
<rect x="235.695" y="146.43" width="18.7717" height="20.5188" rx="5" transform="rotate(-180 235.695 146.43)" fill="#C4DFFF"/>
<rect x="404.563" y="146.43" width="18.7717" height="20.5188" rx="5" transform="rotate(-180 404.563 146.43)" fill="#BCDBFF"/>
<rect x="742.299" y="146.43" width="18.7717" height="20.5188" rx="5" transform="rotate(-180 742.299 146.43)" fill="#E8EAEE"/>
<rect x="66.8264" y="146.43" width="18.7717" height="20.5188" rx="5" transform="rotate(-180 66.8264 146.43)" fill="#BCDBFF"/>
<rect x="549.307" y="146.43" width="18.7717" height="20.5188" rx="5" transform="rotate(-180 549.307 146.43)" fill="#E8EAEE"/>
<rect x="887.043" y="146.43" width="18.7717" height="20.5188" rx="5" transform="rotate(-180 887.043 146.43)" fill="#99C8FF"/>
<rect x="211.571" y="146.43" width="18.7717" height="20.5188" rx="5" transform="rotate(-180 211.571 146.43)" fill="#99C8FF"/>
<rect x="380.439" y="146.43" width="18.7717" height="20.5188" rx="5" transform="rotate(-180 380.439 146.43)" fill="#E8EAEE"/>
<rect x="718.174" y="146.43" width="18.7717" height="20.5188" rx="5" transform="rotate(-180 718.174 146.43)" fill="#99C8FF"/>
<rect x="525.183" y="146.43" width="18.7717" height="20.5188" rx="5" transform="rotate(-180 525.183 146.43)" fill="#E8EAEE"/>
<rect x="862.919" y="146.43" width="18.7717" height="20.5188" rx="5" transform="rotate(-180 862.919 146.43)" fill="#99C8FF"/>
<rect x="187.447" y="146.43" width="18.7717" height="20.5188" rx="5" transform="rotate(-180 187.447 146.43)" fill="#C4DFFF"/>
<rect x="1031.79" y="146.43" width="18.7717" height="20.5188" rx="5" transform="rotate(-180 1031.79 146.43)" fill="#E8EAEE"/>
<rect x="356.315" y="146.43" width="18.7717" height="20.5188" rx="5" transform="rotate(-180 356.315 146.43)" fill="#99C8FF"/>
<rect x="694.051" y="146.43" width="18.7717" height="20.5188" rx="5" transform="rotate(-180 694.051 146.43)" fill="#99C8FF"/>
<rect x="501.059" y="146.43" width="18.7717" height="20.5188" rx="5" transform="rotate(-180 501.059 146.43)" fill="#E8EAEE"/>
<rect x="838.795" y="146.43" width="18.7717" height="20.5188" rx="5" transform="rotate(-180 838.795 146.43)" fill="#E8EAEE"/>
<rect x="163.323" y="146.43" width="18.7717" height="20.5188" rx="5" transform="rotate(-180 163.323 146.43)" fill="#C4DFFF"/>
<rect x="1007.66" y="146.43" width="18.7717" height="20.5188" rx="5" transform="rotate(-180 1007.66 146.43)" fill="#E8EAEE"/>
<rect x="332.191" y="146.43" width="18.7717" height="20.5188" rx="5" transform="rotate(-180 332.191 146.43)" fill="#BCDBFF"/>
<rect x="669.927" y="146.43" width="18.7717" height="20.5188" rx="5" transform="rotate(-180 669.927 146.43)" fill="#E8EAEE"/>
<rect x="476.935" y="146.43" width="18.7717" height="20.5188" rx="5" transform="rotate(-180 476.935 146.43)" fill="#C4DFFF"/>
<rect x="814.67" y="146.43" width="18.7717" height="20.5188" rx="5" transform="rotate(-180 814.67 146.43)" fill="#E8EAEE"/>
<rect x="139.198" y="146.43" width="18.7717" height="20.5188" rx="5" transform="rotate(-180 139.198 146.43)" fill="#BCDBFF"/>
<rect x="983.539" y="146.43" width="18.7717" height="20.5188" rx="5" transform="rotate(-180 983.539 146.43)" fill="#E8EAEE"/>
<rect x="308.067" y="146.43" width="18.7717" height="20.5188" rx="5" transform="rotate(-180 308.067 146.43)" fill="#99C8FF"/>
<rect x="645.803" y="146.43" width="18.7717" height="20.5188" rx="5" transform="rotate(-180 645.803 146.43)" fill="#E8EAEE"/>
<rect x="452.811" y="146.43" width="18.7717" height="20.5188" rx="5" transform="rotate(-180 452.811 146.43)" fill="#99C8FF"/>
<rect x="790.547" y="146.43" width="18.7717" height="20.5188" rx="5" transform="rotate(-180 790.547 146.43)" fill="#99C8FF"/>
<rect x="115.074" y="146.43" width="18.7717" height="20.5188" rx="5" transform="rotate(-180 115.074 146.43)" fill="#C4DFFF"/>
<rect x="42.8958" y="146.769" width="18.7717" height="20.5188" rx="5" transform="rotate(-180 42.8958 146.769)" fill="#99C8FF"/>
<rect x="959.415" y="146.43" width="18.7717" height="20.5188" rx="5" transform="rotate(-180 959.415 146.43)" fill="#99C8FF"/>
<rect x="283.943" y="146.43" width="18.7717" height="20.5188" rx="5" transform="rotate(-180 283.943 146.43)" fill="#BCDBFF"/>
<rect x="621.679" y="146.43" width="18.7717" height="20.5188" rx="5" transform="rotate(-180 621.679 146.43)" fill="#99C8FF"/>
<rect x="597.555" y="121.248" width="18.7717" height="20.5188" rx="5" transform="rotate(-180 597.555 121.248)" fill="#E8EAEE"/>
<rect x="935.29" y="121.248" width="18.7717" height="20.5188" rx="5" transform="rotate(-180 935.29 121.248)" fill="#C4DFFF"/>
<rect x="259.819" y="121.248" width="18.7717" height="20.5188" rx="5" transform="rotate(-180 259.819 121.248)" fill="#99C8FF"/>
<rect x="428.687" y="121.248" width="18.7717" height="20.5188" rx="5" transform="rotate(-180 428.687 121.248)" fill="#99C8FF"/>
<rect x="766.423" y="121.248" width="18.7717" height="20.5188" rx="5" transform="rotate(-180 766.423 121.248)" fill="#E8EAEE"/>
<rect x="90.9504" y="121.248" width="18.7717" height="20.5188" rx="5" transform="rotate(-180 90.9504 121.248)" fill="#C4DFFF"/>
<rect x="573.431" y="121.248" width="18.7717" height="20.5188" rx="5" transform="rotate(-180 573.431 121.248)" fill="#C4DFFF"/>
<rect x="911.167" y="121.248" width="18.7717" height="20.5188" rx="5" transform="rotate(-180 911.167 121.248)" fill="#E8EAEE"/>
<rect x="235.695" y="121.248" width="18.7717" height="20.5188" rx="5" transform="rotate(-180 235.695 121.248)" fill="#C4DFFF"/>
<rect x="404.563" y="121.248" width="18.7717" height="20.5188" rx="5" transform="rotate(-180 404.563 121.248)" fill="#C4DFFF"/>
<rect x="742.299" y="121.248" width="18.7717" height="20.5188" rx="5" transform="rotate(-180 742.299 121.248)" fill="#99C8FF"/>
<rect x="549.307" y="121.248" width="18.7717" height="20.5188" rx="5" transform="rotate(-180 549.307 121.248)" fill="#E8EAEE"/>
<rect x="887.043" y="121.248" width="18.7717" height="20.5188" rx="5" transform="rotate(-180 887.043 121.248)" fill="#E8EAEE"/>
<rect x="211.571" y="121.248" width="18.7717" height="20.5188" rx="5" transform="rotate(-180 211.571 121.248)" fill="#99C8FF"/>
<rect x="380.439" y="121.248" width="18.7717" height="20.5188" rx="5" transform="rotate(-180 380.439 121.248)" fill="#99C8FF"/>
<rect x="718.174" y="121.248" width="18.7717" height="20.5188" rx="5" transform="rotate(-180 718.174 121.248)" fill="#99C8FF"/>
<rect x="525.183" y="121.248" width="18.7717" height="20.5188" rx="5" transform="rotate(-180 525.183 121.248)" fill="#E8EAEE"/>
<rect x="862.919" y="121.248" width="18.7717" height="20.5188" rx="5" transform="rotate(-180 862.919 121.248)" fill="#99C8FF"/>
<rect x="187.447" y="121.248" width="18.7717" height="20.5188" rx="5" transform="rotate(-180 187.447 121.248)" fill="#99C8FF"/>
<rect x="1031.79" y="121.248" width="18.7717" height="20.5188" rx="5" transform="rotate(-180 1031.79 121.248)" fill="#99C8FF"/>
<rect x="356.315" y="121.248" width="18.7717" height="20.5188" rx="5" transform="rotate(-180 356.315 121.248)" fill="#C4DFFF"/>
<rect x="694.051" y="121.248" width="18.7717" height="20.5188" rx="5" transform="rotate(-180 694.051 121.248)" fill="#99C8FF"/>
<rect x="501.059" y="121.248" width="18.7717" height="20.5188" rx="5" transform="rotate(-180 501.059 121.248)" fill="#99C8FF"/>
<rect x="838.795" y="121.248" width="18.7717" height="20.5188" rx="5" transform="rotate(-180 838.795 121.248)" fill="#E8EAEE"/>
<rect x="163.323" y="121.248" width="18.7717" height="20.5188" rx="5" transform="rotate(-180 163.323 121.248)" fill="#BCDBFF"/>
<rect x="1007.66" y="121.248" width="18.7717" height="20.5188" rx="5" transform="rotate(-180 1007.66 121.248)" fill="#99C8FF"/>
<rect x="332.191" y="121.248" width="18.7717" height="20.5188" rx="5" transform="rotate(-180 332.191 121.248)" fill="#99C8FF"/>
<rect x="669.927" y="121.248" width="18.7717" height="20.5188" rx="5" transform="rotate(-180 669.927 121.248)" fill="#99C8FF"/>
<rect x="476.935" y="121.248" width="18.7717" height="20.5188" rx="5" transform="rotate(-180 476.935 121.248)" fill="#C4DFFF"/>
<rect x="814.67" y="121.248" width="18.7717" height="20.5188" rx="5" transform="rotate(-180 814.67 121.248)" fill="#E8EAEE"/>
<rect x="139.198" y="121.248" width="18.7717" height="20.5188" rx="5" transform="rotate(-180 139.198 121.248)" fill="#E3F0FF"/>
<rect x="983.539" y="121.248" width="18.7717" height="20.5188" rx="5" transform="rotate(-180 983.539 121.248)" fill="#E8EAEE"/>
<rect x="308.067" y="121.248" width="18.7717" height="20.5188" rx="5" transform="rotate(-180 308.067 121.248)" fill="#C4DFFF"/>
<rect x="645.803" y="121.248" width="18.7717" height="20.5188" rx="5" transform="rotate(-180 645.803 121.248)" fill="#E8EAEE"/>
<rect x="452.811" y="121.248" width="18.7717" height="20.5188" rx="5" transform="rotate(-180 452.811 121.248)" fill="#99C8FF"/>
<rect x="790.547" y="121.248" width="18.7717" height="20.5188" rx="5" transform="rotate(-180 790.547 121.248)" fill="#99C8FF"/>
<rect x="115.074" y="121.248" width="18.7717" height="20.5188" rx="5" transform="rotate(-180 115.074 121.248)" fill="#E3F0FF"/>
<rect x="959.415" y="121.248" width="18.7717" height="20.5188" rx="5" transform="rotate(-180 959.415 121.248)" fill="#E8EAEE"/>
<rect x="283.943" y="121.248" width="18.7717" height="20.5188" rx="5" transform="rotate(-180 283.943 121.248)" fill="#C4DFFF"/>
<rect x="621.679" y="121.248" width="18.7717" height="20.5188" rx="5" transform="rotate(-180 621.679 121.248)" fill="#99C8FF"/>
<rect x="597.555" y="96.0657" width="18.7717" height="20.5188" rx="5" transform="rotate(-180 597.555 96.0657)" fill="#C4DFFF"/>
<rect x="935.29" y="96.0657" width="18.7717" height="20.5188" rx="5" transform="rotate(-180 935.29 96.0657)" fill="#99C8FF"/>
<rect x="259.819" y="96.0657" width="18.7717" height="20.5188" rx="5" transform="rotate(-180 259.819 96.0657)" fill="#C4DFFF"/>
<rect x="428.687" y="96.0657" width="18.7717" height="20.5188" rx="5" transform="rotate(-180 428.687 96.0657)" fill="#99C8FF"/>
<rect x="766.423" y="96.0657" width="18.7717" height="20.5188" rx="5" transform="rotate(-180 766.423 96.0657)" fill="#E8EAEE"/>
<rect x="90.9504" y="96.0657" width="18.7717" height="20.5188" rx="5" transform="rotate(-180 90.9504 96.0657)" fill="#BCDBFF"/>
<rect x="573.431" y="96.0657" width="18.7717" height="20.5188" rx="5" transform="rotate(-180 573.431 96.0657)" fill="#99C8FF"/>
<rect x="911.167" y="96.0657" width="18.7717" height="20.5188" rx="5" transform="rotate(-180 911.167 96.0657)" fill="#99C8FF"/>
<rect x="235.695" y="96.0657" width="18.7717" height="20.5188" rx="5" transform="rotate(-180 235.695 96.0657)" fill="#C4DFFF"/>
<rect x="404.563" y="96.0657" width="18.7717" height="20.5188" rx="5" transform="rotate(-180 404.563 96.0657)" fill="#BCDBFF"/>
<rect x="742.299" y="96.0657" width="18.7717" height="20.5188" rx="5" transform="rotate(-180 742.299 96.0657)" fill="#E8EAEE"/>
<rect x="549.307" y="96.0657" width="18.7717" height="20.5188" rx="5" transform="rotate(-180 549.307 96.0657)" fill="#99C8FF"/>
<rect x="887.043" y="96.0657" width="18.7717" height="20.5188" rx="5" transform="rotate(-180 887.043 96.0657)" fill="#99C8FF"/>
<rect x="211.571" y="96.0657" width="18.7717" height="20.5188" rx="5" transform="rotate(-180 211.571 96.0657)" fill="#99C8FF"/>
<rect x="380.439" y="96.0657" width="18.7717" height="20.5188" rx="5" transform="rotate(-180 380.439 96.0657)" fill="#E8EAEE"/>
<rect x="718.174" y="96.0657" width="18.7717" height="20.5188" rx="5" transform="rotate(-180 718.174 96.0657)" fill="#E8EAEE"/>
<rect x="525.183" y="96.0657" width="18.7717" height="20.5188" rx="5" transform="rotate(-180 525.183 96.0657)" fill="#99C8FF"/>
<rect x="862.919" y="96.0657" width="18.7717" height="20.5188" rx="5" transform="rotate(-180 862.919 96.0657)" fill="#99C8FF"/>
<rect x="187.447" y="96.0657" width="18.7717" height="20.5188" rx="5" transform="rotate(-180 187.447 96.0657)" fill="#C4DFFF"/>
<rect x="1031.79" y="96.0657" width="18.7717" height="20.5188" rx="5" transform="rotate(-180 1031.79 96.0657)" fill="#99C8FF"/>
<rect x="356.315" y="96.0657" width="18.7717" height="20.5188" rx="5" transform="rotate(-180 356.315 96.0657)" fill="#99C8FF"/>
<rect x="694.051" y="96.0657" width="18.7717" height="20.5188" rx="5" transform="rotate(-180 694.051 96.0657)" fill="#C4DFFF"/>
<rect x="501.059" y="96.0657" width="18.7717" height="20.5188" rx="5" transform="rotate(-180 501.059 96.0657)" fill="#E8EAEE"/>
<rect x="838.795" y="96.0657" width="18.7717" height="20.5188" rx="5" transform="rotate(-180 838.795 96.0657)" fill="#99C8FF"/>
<rect x="163.323" y="96.0657" width="18.7717" height="20.5188" rx="5" transform="rotate(-180 163.323 96.0657)" fill="#C4DFFF"/>
<rect x="1007.66" y="96.0657" width="18.7717" height="20.5188" rx="5" transform="rotate(-180 1007.66 96.0657)" fill="#E8EAEE"/>
<rect x="332.191" y="96.0657" width="18.7717" height="20.5188" rx="5" transform="rotate(-180 332.191 96.0657)" fill="#C4DFFF"/>
<rect x="669.927" y="96.0657" width="18.7717" height="20.5188" rx="5" transform="rotate(-180 669.927 96.0657)" fill="#99C8FF"/>
<rect x="476.935" y="96.0657" width="18.7717" height="20.5188" rx="5" transform="rotate(-180 476.935 96.0657)" fill="#E3F0FF"/>
<rect x="814.67" y="96.0657" width="18.7717" height="20.5188" rx="5" transform="rotate(-180 814.67 96.0657)" fill="#99C8FF"/>
<rect x="139.198" y="96.0657" width="18.7717" height="20.5188" rx="5" transform="rotate(-180 139.198 96.0657)" fill="#E3F0FF"/>
<rect x="66.981" y="96.0657" width="18.7717" height="20.5188" rx="5" transform="rotate(-180 66.981 96.0657)" fill="#BCDBFF"/>
<rect x="983.539" y="96.0657" width="18.7717" height="20.5188" rx="5" transform="rotate(-180 983.539 96.0657)" fill="#99C8FF"/>
<rect x="308.067" y="96.0657" width="18.7717" height="20.5188" rx="5" transform="rotate(-180 308.067 96.0657)" fill="#BCDBFF"/>
<rect x="645.803" y="96.0657" width="18.7717" height="20.5188" rx="5" transform="rotate(-180 645.803 96.0657)" fill="#E8EAEE"/>
<rect x="452.811" y="96.0657" width="18.7717" height="20.5188" rx="5" transform="rotate(-180 452.811 96.0657)" fill="#BCDBFF"/>
<rect x="790.547" y="96.0657" width="18.7717" height="20.5188" rx="5" transform="rotate(-180 790.547 96.0657)" fill="#E8EAEE"/>
<rect x="115.074" y="96.0657" width="18.7717" height="20.5188" rx="5" transform="rotate(-180 115.074 96.0657)" fill="#C4DFFF"/>
<rect x="42.8569" y="96.0657" width="18.7717" height="20.5188" rx="5" transform="rotate(-180 42.8569 96.0657)" fill="#E8EAEE"/>
<rect x="959.415" y="96.0657" width="18.7717" height="20.5188" rx="5" transform="rotate(-180 959.415 96.0657)" fill="#99C8FF"/>
<rect x="283.943" y="96.0657" width="18.7717" height="20.5188" rx="5" transform="rotate(-180 283.943 96.0657)" fill="#C4DFFF"/>
<rect x="621.679" y="96.0657" width="18.7717" height="20.5188" rx="5" transform="rotate(-180 621.679 96.0657)" fill="#99C8FF"/>
<rect x="597.555" y="70.8835" width="18.7717" height="20.5188" rx="5" transform="rotate(-180 597.555 70.8835)" fill="#99C8FF"/>
<rect x="935.29" y="70.8835" width="18.7717" height="20.5188" rx="5" transform="rotate(-180 935.29 70.8835)" fill="#C4DFFF"/>
<rect x="259.819" y="70.8835" width="18.7717" height="20.5188" rx="5" transform="rotate(-180 259.819 70.8835)" fill="#C4DFFF"/>
<rect x="428.687" y="70.8835" width="18.7717" height="20.5188" rx="5" transform="rotate(-180 428.687 70.8835)" fill="#E3F0FF"/>
<rect x="766.423" y="70.8835" width="18.7717" height="20.5188" rx="5" transform="rotate(-180 766.423 70.8835)" fill="#E8EAEE"/>
<rect x="90.9504" y="70.8835" width="18.7717" height="20.5188" rx="5" transform="rotate(-180 90.9504 70.8835)" fill="#E3F0FF"/>
<rect x="573.431" y="70.8835" width="18.7717" height="20.5188" rx="5" transform="rotate(-180 573.431 70.8835)" fill="#C4DFFF"/>
<rect x="911.167" y="70.8835" width="18.7717" height="20.5188" rx="5" transform="rotate(-180 911.167 70.8835)" fill="#E8EAEE"/>
<rect x="235.695" y="70.8835" width="18.7717" height="20.5188" rx="5" transform="rotate(-180 235.695 70.8835)" fill="#E3F0FF"/>
<rect x="404.563" y="70.8835" width="18.7717" height="20.5188" rx="5" transform="rotate(-180 404.563 70.8835)" fill="#C4DFFF"/>
<rect x="742.299" y="70.8835" width="18.7717" height="20.5188" rx="5" transform="rotate(-180 742.299 70.8835)" fill="#E8EAEE"/>
<rect x="549.307" y="70.8835" width="18.7717" height="20.5188" rx="5" transform="rotate(-180 549.307 70.8835)" fill="#C4DFFF"/>
<rect x="887.043" y="70.8835" width="18.7717" height="20.5188" rx="5" transform="rotate(-180 887.043 70.8835)" fill="#E8EAEE"/>
<rect x="211.571" y="70.8835" width="18.7717" height="20.5188" rx="5" transform="rotate(-180 211.571 70.8835)" fill="#99C8FF"/>
<rect x="380.439" y="70.8835" width="18.7717" height="20.5188" rx="5" transform="rotate(-180 380.439 70.8835)" fill="#99C8FF"/>
<rect x="718.174" y="70.8835" width="18.7717" height="20.5188" rx="5" transform="rotate(-180 718.174 70.8835)" fill="#99C8FF"/>
<rect x="525.183" y="70.8835" width="18.7717" height="20.5188" rx="5" transform="rotate(-180 525.183 70.8835)" fill="#99C8FF"/>
<rect x="862.919" y="70.8835" width="18.7717" height="20.5188" rx="5" transform="rotate(-180 862.919 70.8835)" fill="#E8EAEE"/>
<rect x="187.447" y="70.8835" width="18.7717" height="20.5188" rx="5" transform="rotate(-180 187.447 70.8835)" fill="#BCDBFF"/>
<rect x="1031.79" y="70.8835" width="18.7717" height="20.5188" rx="5" transform="rotate(-180 1031.79 70.8835)" fill="#E8EAEE"/>
<rect x="356.315" y="70.8835" width="18.7717" height="20.5188" rx="5" transform="rotate(-180 356.315 70.8835)" fill="#C4DFFF"/>
<rect x="694.051" y="70.8835" width="18.7717" height="20.5188" rx="5" transform="rotate(-180 694.051 70.8835)" fill="#E8EAEE"/>
<rect x="501.059" y="70.8835" width="18.7717" height="20.5188" rx="5" transform="rotate(-180 501.059 70.8835)" fill="#99C8FF"/>
<rect x="838.795" y="70.8835" width="18.7717" height="20.5188" rx="5" transform="rotate(-180 838.795 70.8835)" fill="#99C8FF"/>
<rect x="163.323" y="70.8835" width="18.7717" height="20.5188" rx="5" transform="rotate(-180 163.323 70.8835)" fill="#C4DFFF"/>
<rect x="1007.66" y="70.8835" width="18.7717" height="20.5188" rx="5" transform="rotate(-180 1007.66 70.8835)" fill="#E8EAEE"/>
<rect x="332.191" y="70.8835" width="18.7717" height="20.5188" rx="5" transform="rotate(-180 332.191 70.8835)" fill="#E8EAEE"/>
<rect x="669.927" y="70.8835" width="18.7717" height="20.5188" rx="5" transform="rotate(-180 669.927 70.8835)" fill="#C4DFFF"/>
<rect x="476.935" y="70.8835" width="18.7717" height="20.5188" rx="5" transform="rotate(-180 476.935 70.8835)" fill="#C4DFFF"/>
<rect x="814.67" y="70.8835" width="18.7717" height="20.5188" rx="5" transform="rotate(-180 814.67 70.8835)" fill="#E8EAEE"/>
<rect x="139.198" y="70.8835" width="18.7717" height="20.5188" rx="5" transform="rotate(-180 139.198 70.8835)" fill="#C4DFFF"/>
<rect x="66.981" y="70.714" width="18.7717" height="20.5188" rx="5" transform="rotate(-180 66.981 70.714)" fill="#BCDBFF"/>
<rect x="983.539" y="70.8835" width="18.7717" height="20.5188" rx="5" transform="rotate(-180 983.539 70.8835)" fill="#99C8FF"/>
<rect x="308.067" y="70.8835" width="18.7717" height="20.5188" rx="5" transform="rotate(-180 308.067 70.8835)" fill="#E3F0FF"/>
<rect x="645.803" y="70.8835" width="18.7717" height="20.5188" rx="5" transform="rotate(-180 645.803 70.8835)" fill="#E8EAEE"/>
<rect x="452.811" y="70.8835" width="18.7717" height="20.5188" rx="5" transform="rotate(-180 452.811 70.8835)" fill="#E8EAEE"/>
<rect x="790.547" y="70.8835" width="18.7717" height="20.5188" rx="5" transform="rotate(-180 790.547 70.8835)" fill="#E8EAEE"/>
<rect x="115.074" y="70.8835" width="18.7717" height="20.5188" rx="5" transform="rotate(-180 115.074 70.8835)" fill="#C4DFFF"/>
<rect x="959.415" y="70.8835" width="18.7717" height="20.5188" rx="5" transform="rotate(-180 959.415 70.8835)" fill="#C4DFFF"/>
<rect x="283.943" y="70.8835" width="18.7717" height="20.5188" rx="5" transform="rotate(-180 283.943 70.8835)" fill="#E8EAEE"/>
<rect x="621.679" y="70.8835" width="18.7717" height="20.5188" rx="5" transform="rotate(-180 621.679 70.8835)" fill="#E8EAEE"/>
<rect x="597.555" y="45.7013" width="18.7717" height="20.5188" rx="5" transform="rotate(-180 597.555 45.7013)" fill="#C4DFFF"/>
<rect x="935.29" y="45.7013" width="18.7717" height="20.5188" rx="5" transform="rotate(-180 935.29 45.7013)" fill="#99C8FF"/>
<rect x="259.819" y="45.7013" width="18.7717" height="20.5188" rx="5" transform="rotate(-180 259.819 45.7013)" fill="#BCDBFF"/>
<rect x="428.687" y="45.7013" width="18.7717" height="20.5188" rx="5" transform="rotate(-180 428.687 45.7013)" fill="#E3F0FF"/>
<rect x="766.423" y="45.7013" width="18.7717" height="20.5188" rx="5" transform="rotate(-180 766.423 45.7013)" fill="#E8EAEE"/>
<rect x="90.9504" y="45.7013" width="18.7717" height="20.5188" rx="5" transform="rotate(-180 90.9504 45.7013)" fill="#BCDBFF"/>
<rect x="573.431" y="45.7013" width="18.7717" height="20.5188" rx="5" transform="rotate(-180 573.431 45.7013)" fill="#C4DFFF"/>
<rect x="911.167" y="45.7013" width="18.7717" height="20.5188" rx="5" transform="rotate(-180 911.167 45.7013)" fill="#C4DFFF"/>
<rect x="235.695" y="45.7013" width="18.7717" height="20.5188" rx="5" transform="rotate(-180 235.695 45.7013)" fill="#BCDBFF"/>
<rect x="404.563" y="45.7013" width="18.7717" height="20.5188" rx="5" transform="rotate(-180 404.563 45.7013)" fill="#C4DFFF"/>
<rect x="742.299" y="45.7013" width="18.7717" height="20.5188" rx="5" transform="rotate(-180 742.299 45.7013)" fill="#99C8FF"/>
<rect x="549.307" y="45.7013" width="18.7717" height="20.5188" rx="5" transform="rotate(-180 549.307 45.7013)" fill="#99C8FF"/>
<rect x="887.043" y="45.7013" width="18.7717" height="20.5188" rx="5" transform="rotate(-180 887.043 45.7013)" fill="#99C8FF"/>
<rect x="211.571" y="45.7013" width="18.7717" height="20.5188" rx="5" transform="rotate(-180 211.571 45.7013)" fill="#BCDBFF"/>
<rect x="380.439" y="45.7013" width="18.7717" height="20.5188" rx="5" transform="rotate(-180 380.439 45.7013)" fill="#E8EAEE"/>
<rect x="718.174" y="45.7013" width="18.7717" height="20.5188" rx="5" transform="rotate(-180 718.174 45.7013)" fill="#E8EAEE"/>
<rect x="525.183" y="45.7013" width="18.7717" height="20.5188" rx="5" transform="rotate(-180 525.183 45.7013)" fill="#99C8FF"/>
<rect x="862.919" y="45.7013" width="18.7717" height="20.5188" rx="5" transform="rotate(-180 862.919 45.7013)" fill="#E8EAEE"/>
<rect x="187.447" y="45.7013" width="18.7717" height="20.5188" rx="5" transform="rotate(-180 187.447 45.7013)" fill="#99C8FF"/>
<rect x="1031.79" y="45.7013" width="18.7717" height="20.5188" rx="5" transform="rotate(-180 1031.79 45.7013)" fill="#E8EAEE"/>
<rect x="356.315" y="45.7013" width="18.7717" height="20.5188" rx="5" transform="rotate(-180 356.315 45.7013)" fill="#E3F0FF"/>
<rect x="694.051" y="45.7013" width="18.7717" height="20.5188" rx="5" transform="rotate(-180 694.051 45.7013)" fill="#E8EAEE"/>
<rect x="501.059" y="45.7013" width="18.7717" height="20.5188" rx="5" transform="rotate(-180 501.059 45.7013)" fill="#C4DFFF"/>
<rect x="838.795" y="45.7013" width="18.7717" height="20.5188" rx="5" transform="rotate(-180 838.795 45.7013)" fill="#C4DFFF"/>
<rect x="163.323" y="45.7013" width="18.7717" height="20.5188" rx="5" transform="rotate(-180 163.323 45.7013)" fill="#99C8FF"/>
<rect x="1007.66" y="45.7013" width="18.7717" height="20.5188" rx="5" transform="rotate(-180 1007.66 45.7013)" fill="#C4DFFF"/>
<rect x="332.191" y="45.7013" width="18.7717" height="20.5188" rx="5" transform="rotate(-180 332.191 45.7013)" fill="#BCDBFF"/>
<rect x="669.927" y="45.7013" width="18.7717" height="20.5188" rx="5" transform="rotate(-180 669.927 45.7013)" fill="#C4DFFF"/>
<rect x="476.935" y="45.7013" width="18.7717" height="20.5188" rx="5" transform="rotate(-180 476.935 45.7013)" fill="#BCDBFF"/>
<rect x="814.67" y="45.7013" width="18.7717" height="20.5188" rx="5" transform="rotate(-180 814.67 45.7013)" fill="#E8EAEE"/>
<rect x="139.198" y="45.7013" width="18.7717" height="20.5188" rx="5" transform="rotate(-180 139.198 45.7013)" fill="#BCDBFF"/>
<rect x="66.981" y="45.3622" width="18.7717" height="20.5188" rx="5" transform="rotate(-180 66.981 45.3622)" fill="#99C8FF"/>
<rect x="983.539" y="45.7013" width="18.7717" height="20.5188" rx="5" transform="rotate(-180 983.539 45.7013)" fill="#99C8FF"/>
<rect x="308.067" y="45.7013" width="18.7717" height="20.5188" rx="5" transform="rotate(-180 308.067 45.7013)" fill="#C4DFFF"/>
<rect x="645.803" y="45.7013" width="18.7717" height="20.5188" rx="5" transform="rotate(-180 645.803 45.7013)" fill="#99C8FF"/>
<rect x="452.811" y="45.7013" width="18.7717" height="20.5188" rx="5" transform="rotate(-180 452.811 45.7013)" fill="#E8EAEE"/>
<rect x="790.547" y="45.7013" width="18.7717" height="20.5188" rx="5" transform="rotate(-180 790.547 45.7013)" fill="#E8EAEE"/>
<rect x="115.074" y="45.7013" width="18.7717" height="20.5188" rx="5" transform="rotate(-180 115.074 45.7013)" fill="#99C8FF"/>
<rect x="42.8569" y="45.3622" width="18.7717" height="20.5188" rx="5" transform="rotate(-180 42.8569 45.3622)" fill="#E8EAEE"/>
<rect x="959.415" y="45.7013" width="18.7717" height="20.5188" rx="5" transform="rotate(-180 959.415 45.7013)" fill="#E8EAEE"/>
<rect x="283.943" y="45.7013" width="18.7717" height="20.5188" rx="5" transform="rotate(-180 283.943 45.7013)" fill="#E8EAEE"/>
<rect x="621.679" y="45.7013" width="18.7717" height="20.5188" rx="5" transform="rotate(-180 621.679 45.7013)" fill="#E8EAEE"/>
<rect x="597.555" y="20.519" width="18.7717" height="20.5188" rx="5" transform="rotate(-180 597.555 20.519)" fill="#C4DFFF"/>
<rect x="935.29" y="20.519" width="18.7717" height="20.5188" rx="5" transform="rotate(-180 935.29 20.519)" fill="#BCDBFF"/>
<rect x="259.819" y="20.519" width="18.7717" height="20.5188" rx="5" transform="rotate(-180 259.819 20.519)" fill="#E8EAEE"/>
<rect x="428.687" y="20.519" width="18.7717" height="20.5188" rx="5" transform="rotate(-180 428.687 20.519)" fill="#E8EAEE"/>
<rect x="766.423" y="20.519" width="18.7717" height="20.5188" rx="5" transform="rotate(-180 766.423 20.519)" fill="#99C8FF"/>
<rect x="90.9504" y="20.519" width="18.7717" height="20.5188" rx="5" transform="rotate(-180 90.9504 20.519)" fill="#99C8FF"/>
<rect x="573.431" y="20.519" width="18.7717" height="20.5188" rx="5" transform="rotate(-180 573.431 20.519)" fill="#E8EAEE"/>
<rect x="911.167" y="20.519" width="18.7717" height="20.5188" rx="5" transform="rotate(-180 911.167 20.519)" fill="#99C8FF"/>
<rect x="235.695" y="20.519" width="18.7717" height="20.5188" rx="5" transform="rotate(-180 235.695 20.519)" fill="#99C8FF"/>
<rect x="404.563" y="20.519" width="18.7717" height="20.5188" rx="5" transform="rotate(-180 404.563 20.519)" fill="#E8EAEE"/>
<rect x="742.299" y="20.519" width="18.7717" height="20.5188" rx="5" transform="rotate(-180 742.299 20.519)" fill="#E8EAEE"/>
<rect x="549.307" y="20.519" width="18.7717" height="20.5188" rx="5" transform="rotate(-180 549.307 20.519)" fill="#E8EAEE"/>
<rect x="887.043" y="20.519" width="18.7717" height="20.5188" rx="5" transform="rotate(-180 887.043 20.519)" fill="#99C8FF"/>
<rect x="211.571" y="20.519" width="18.7717" height="20.5188" rx="5" transform="rotate(-180 211.571 20.519)" fill="#99C8FF"/>
<rect x="380.439" y="20.519" width="18.7717" height="20.5188" rx="5" transform="rotate(-180 380.439 20.519)" fill="#E8EAEE"/>
<rect x="718.174" y="20.519" width="18.7717" height="20.5188" rx="5" transform="rotate(-180 718.174 20.519)" fill="#99C8FF"/>
<rect x="525.183" y="20.519" width="18.7717" height="20.5188" rx="5" transform="rotate(-180 525.183 20.519)" fill="#E8EAEE"/>
<rect x="862.919" y="20.519" width="18.7717" height="20.5188" rx="5" transform="rotate(-180 862.919 20.519)" fill="#C4DFFF"/>
<rect x="187.447" y="20.519" width="18.7717" height="20.5188" rx="5" transform="rotate(-180 187.447 20.519)" fill="#99C8FF"/>
<rect x="1031.79" y="20.519" width="18.7717" height="20.5188" rx="5" transform="rotate(-180 1031.79 20.519)" fill="#E8EAEE"/>
<rect x="356.315" y="20.519" width="18.7717" height="20.5188" rx="5" transform="rotate(-180 356.315 20.519)" fill="#E3F0FF"/>
<rect x="694.051" y="20.519" width="18.7717" height="20.5188" rx="5" transform="rotate(-180 694.051 20.519)" fill="#E8EAEE"/>
<rect x="501.059" y="20.519" width="18.7717" height="20.5188" rx="5" transform="rotate(-180 501.059 20.519)" fill="#99C8FF"/>
<rect x="838.795" y="20.519" width="18.7717" height="20.5188" rx="5" transform="rotate(-180 838.795 20.519)" fill="#E8EAEE"/>
<rect x="163.323" y="20.519" width="18.7717" height="20.5188" rx="5" transform="rotate(-180 163.323 20.519)" fill="#BCDBFF"/>
<rect x="1007.66" y="20.519" width="18.7717" height="20.5188" rx="5" transform="rotate(-180 1007.66 20.519)" fill="#C4DFFF"/>
<rect x="332.191" y="20.519" width="18.7717" height="20.5188" rx="5" transform="rotate(-180 332.191 20.519)" fill="#C4DFFF"/>
<rect x="669.927" y="20.519" width="18.7717" height="20.5188" rx="5" transform="rotate(-180 669.927 20.519)" fill="#E8EAEE"/>
<rect x="476.935" y="20.519" width="18.7717" height="20.5188" rx="5" transform="rotate(-180 476.935 20.519)" fill="#C4DFFF"/>
<rect x="814.67" y="20.519" width="18.7717" height="20.5188" rx="5" transform="rotate(-180 814.67 20.519)" fill="#E8EAEE"/>
<rect x="139.198" y="20.519" width="18.7717" height="20.5188" rx="5" transform="rotate(-180 139.198 20.519)" fill="#99C8FF"/>
<rect x="983.539" y="20.519" width="18.7717" height="20.5188" rx="5" transform="rotate(-180 983.539 20.519)" fill="#99C8FF"/>
<rect x="308.067" y="20.519" width="18.7717" height="20.5188" rx="5" transform="rotate(-180 308.067 20.519)" fill="#C4DFFF"/>
<rect x="645.803" y="20.519" width="18.7717" height="20.5188" rx="5" transform="rotate(-180 645.803 20.519)" fill="#99C8FF"/>
<rect x="452.811" y="20.519" width="18.7717" height="20.5188" rx="5" transform="rotate(-180 452.811 20.519)" fill="#99C8FF"/>
<rect x="790.547" y="20.519" width="18.7717" height="20.5188" rx="5" transform="rotate(-180 790.547 20.519)" fill="#99C8FF"/>
<rect x="115.074" y="20.519" width="18.7717" height="20.5188" rx="5" transform="rotate(-180 115.074 20.519)" fill="#E8EAEE"/>
<rect x="959.415" y="20.519" width="18.7717" height="20.5188" rx="5" transform="rotate(-180 959.415 20.519)" fill="#C4DFFF"/>
<rect x="283.943" y="20.519" width="18.7717" height="20.5188" rx="5" transform="rotate(-180 283.943 20.519)" fill="#99C8FF"/>
<rect x="621.679" y="20.519" width="18.7717" height="20.5188" rx="5" transform="rotate(-180 621.679 20.519)" fill="#C4DFFF"/>
</g>
</svg>
