<svg width="141" height="172" viewBox="0 0 141 172" fill="none" xmlns="http://www.w3.org/2000/svg">
<g opacity="0.05">
<rect x="49.0759" width="18.7717" height="20.5188" rx="5" fill="#E8EAEE"/>
<rect x="73.2" width="18.7717" height="20.5188" rx="5" fill="#99C8FF"/>
<rect x="121.255" y="0.466309" width="18.7717" height="20.5188" rx="5" fill="#99C8FF"/>
<rect x="0.827881" width="18.7717" height="20.5188" rx="5" fill="#E3F0FF"/>
<rect x="24.9519" width="18.7717" height="20.5188" rx="5" fill="#E3F0FF"/>
<rect x="49.0759" y="25.1821" width="18.7717" height="20.5188" rx="5" fill="#BCDBFF"/>
<rect x="121.255" y="24.843" width="18.7717" height="20.5188" rx="5" fill="#C4DFFF"/>
<rect x="73.2" y="25.1821" width="18.7717" height="20.5188" rx="5" fill="#BCDBFF"/>
<rect x="0.827881" y="25.1821" width="18.7717" height="20.5188" rx="5" fill="#BCDBFF"/>
<rect x="24.9519" y="25.1821" width="18.7717" height="20.5188" rx="5" fill="#C4DFFF"/>
<rect x="97.1306" y="24.843" width="18.7717" height="20.5188" rx="5" fill="#99C8FF"/>
<rect x="49.0759" y="50.3643" width="18.7717" height="20.5188" rx="5" fill="#C4DFFF"/>
<rect x="0.827881" y="50.3643" width="18.7717" height="20.5188" rx="5" fill="#E3F0FF"/>
<rect x="24.9519" y="50.3643" width="18.7717" height="20.5188" rx="5" fill="#E3F0FF"/>
<rect x="49.0759" y="75.5466" width="18.7717" height="20.5188" rx="5" fill="#BCDBFF"/>
<rect x="0.827881" y="75.5466" width="18.7717" height="20.5188" rx="5" fill="#E3F0FF"/>
<rect x="73.0454" y="75.5466" width="18.7717" height="20.5188" rx="5" fill="#BCDBFF"/>
<rect x="24.9519" y="75.5466" width="18.7717" height="20.5188" rx="5" fill="#C4DFFF"/>
<rect x="97.1694" y="75.5466" width="18.7717" height="20.5188" rx="5" fill="#E8EAEE"/>
<rect x="49.0759" y="100.729" width="18.7717" height="20.5188" rx="5" fill="#E3F0FF"/>
<rect x="0.827881" y="100.729" width="18.7717" height="20.5188" rx="5" fill="#C4DFFF"/>
<rect x="73.0454" y="100.898" width="18.7717" height="20.5188" rx="5" fill="#BCDBFF"/>
<rect x="24.9519" y="100.729" width="18.7717" height="20.5188" rx="5" fill="#C4DFFF"/>
<rect x="49.0759" y="125.911" width="18.7717" height="20.5188" rx="5" fill="#BCDBFF"/>
<rect x="0.827881" y="125.911" width="18.7717" height="20.5188" rx="5" fill="#BCDBFF"/>
<rect x="73.0454" y="126.25" width="18.7717" height="20.5188" rx="5" fill="#99C8FF"/>
<rect x="24.9519" y="125.911" width="18.7717" height="20.5188" rx="5" fill="#99C8FF"/>
<rect x="97.1694" y="126.25" width="18.7717" height="20.5188" rx="5" fill="#E8EAEE"/>
<rect x="49.0759" y="151.093" width="18.7717" height="20.5188" rx="5" fill="#99C8FF"/>
<rect x="0.827881" y="151.093" width="18.7717" height="20.5188" rx="5" fill="#99C8FF"/>
<rect x="24.9519" y="151.093" width="18.7717" height="20.5188" rx="5" fill="#E8EAEE"/>
</g>
</svg>
